<?xml version="1.0" encoding="UTF-8" standalone="no"?><!-- Created with Inkscape (http://www.inkscape.org/) --><svg xmlns:inkscape="http://www.inkscape.org/namespaces/inkscape" xmlns:sodipodi="http://sodipodi.sourceforge.net/DTD/sodipodi-0.dtd" xmlns="http://www.w3.org/2000/svg" xmlns:svg="http://www.w3.org/2000/svg" width="420mm" height="297mm" viewBox="0 0 420 297" version="1.1" id="svg1" inkscape:version="1.4 (e7c3feb1, 2024-10-09)" sodipodi:docname="simple_text.svg"><!--
  Converted to single-line fonts using EMS Readability
  Original text elements hidden, converted paths in group #single-line-text-converted
  Generated by SVG Font Converter Tool
-->
  <sodipodi:namedview id="namedview1" pagecolor="#ffffff" bordercolor="#666666" borderopacity="1.0" inkscape:showpageshadow="2" inkscape:pageopacity="0.0" inkscape:pagecheckerboard="0" inkscape:deskcolor="#d1d1d1" inkscape:document-units="mm" inkscape:zoom="0.39494148" inkscape:cx="168.37938" inkscape:cy="348.15284" inkscape:window-width="1104" inkscape:window-height="694" inkscape:window-x="314" inkscape:window-y="74" inkscape:window-maximized="0" inkscape:current-layer="layer1"/>
  <defs id="defs1">
    <rect x="111.40891" y="184.83751" width="303.84248" height="197.49761" id="rect1"/>
  </defs>
  <g inkscape:label="Layer 1" inkscape:groupmode="layer" id="layer1" style="display:inline">
    <text xml:space="preserve" transform="scale(0.26458333)" id="text1" style="display: none;"><tspan x="129.69282" y="206.73382" id="tspan2">Convert this text - The </tspan><tspan x="117.67773" y="239.77375" id="tspan3">quick brown fox jumped </tspan><tspan x="158.59961" y="272.81368" id="tspan4">over the lazy dog </tspan><tspan x="176.84103" y="305.8536" id="tspan5">1234567890:/</tspan></text>
  </g>
<g id="single-line-text-converted" stroke="black" stroke-width="0.5" fill="none"><path d="M 129.69282 206.73382 M 129.69282 206.73382L 454 47.2 L 365 15.8 L 277 28.4 L 195 72.4 L 132 148 L 101 227 L 91.4 346 L 101 457 L 142 548 L 205 617 L 277 652 L 359 658 L 432 643 L 482 611 L 498 592 M 137.93882000000002 206.73382 M 137.93882000000002 206.73382L 290 18.9 L 353 34.6 L 413 75.6 L 450 139 L 466 208 L 469 274 L 460 334 L 438 387 L 406 428 L 362 466 L 315 482 L 271 485 L 220 476 L 173 447 L 132 400 L 110 356 L 91.4 290 L 91.4 239 L 97.6 180 L 113 126 L 151 75.6 L 195 40.9 L 243 22.1 L 287 18.9 M 145.79282000000003 206.73382 M 145.79282000000003 206.73382L 126 482 L 126 369 L 170 413 L 211 450 L 243 469 L 290 482 L 321 485 L 369 472 L 397 454 L 419 422 L 438 378 L 438 15.8 M 153.60482000000005 206.73382 M 153.60482000000005 206.73382L 227 15.8 L 239 15.8 L 413 485 M 160.04482000000004 206.73382 M 160.04482000000004 206.73382L 435 265 L 435 321 L 419 394 L 372 450 L 324 482 L 258 485 L 192 466 L 135 419 L 113 372 L 88.2 312 L 81.9 249 L 97.6 173 L 126 104 L 183 47.2 L 236 22.1 L 302 15.8 L 359 31.5 L 413 59.9 M 167.10082000000006 206.73382 M 167.10082000000006 206.73382L 129 482 L 129 340 L 158 397 L 202 454 L 249 476 L 293 482 L 321 479 M 171.86082000000005 206.73382 M 171.86082000000005 206.73382L 265 22.1 L 220 22.1 L 180 34.6 L 145 75.6 L 139 145 L 139 469 L 47.2 469 L 290 469 L 139 469 L 139 611 M 196.53682000000003 206.73382 M 196.53682000000003 206.73382L 265 22.1 L 220 22.1 L 180 34.6 L 145 75.6 L 139 145 L 139 469 L 47.2 469 L 290 469 L 139 469 L 139 611 M 201.21282000000002 206.73382 M 201.21282000000002 206.73382L 126 715 L 126 365 L 173 416 L 214 454 L 274 479 L 334 485 L 403 447 L 428 403 L 441 331 L 441 18.9 M 208.96882000000002 206.73382 M 208.96882000000002 206.73382L 126 479 M 208.96882000000002 206.73382L 97.6 621 L 148 621 L 148 671 L 97.6 671 M 212.49682 206.73382 M 212.49682 206.73382L 123 40.9 L 186 22.1 L 236 15.8 L 299 37.8 L 346 75.6 L 362 132 L 350 189 L 293 236 L 214 268 L 142 299 L 101 340 L 91.4 387 L 107 432 L 158 476 L 220 485 L 284 472 L 337 441 M 238.48882 206.73382 M 238.48882 206.73382L 265 22.1 L 220 22.1 L 180 34.6 L 145 75.6 L 139 145 L 139 469 L 47.2 469 L 290 469 L 139 469 L 139 611 M 243.16482 206.73382 M 243.16482 206.73382L 435 265 L 435 321 L 419 394 L 372 450 L 324 482 L 258 485 L 192 466 L 135 419 L 113 372 L 88.2 312 L 81.9 249 L 97.6 173 L 126 104 L 183 47.2 L 236 22.1 L 302 15.8 L 359 31.5 L 413 59.9 M 250.22082 206.73382 M 250.22082 206.73382L 365 485 M 250.22082 206.73382L 387 9.45 M 256.31082 206.73382 M 256.31082 206.73382L 265 22.1 L 220 22.1 L 180 34.6 L 145 75.6 L 139 145 L 139 469 L 47.2 469 L 290 469 L 139 469 L 139 611 M 280.98681999999997 206.73382 M 280.98681999999997 206.73382L 261 261 M 305.57881999999995 206.73382 M 305.57881999999995 206.73382L 274 649 L 56.7 649 L 495 649 M 313.25082 206.73382 M 313.25082 206.73382L 126 715 L 126 365 L 173 416 L 214 454 L 274 479 L 334 485 L 403 447 L 428 403 L 441 331 L 441 18.9 M 321.00681999999995 206.73382 M 321.00681999999995 206.73382L 435 265 L 435 321 L 419 394 L 372 450 L 324 482 L 258 485 L 192 466 L 135 419 L 113 372 L 88.2 312 L 81.9 249 L 97.6 173 L 126 104 L 183 47.2 L 236 22.1 L 302 15.8 L 359 31.5 L 413 59.9" class="converted-text-0" data-original-text="Convert this text - The"/><path d="M 117.67773 239.77375 M 117.67773 239.77375L 438 479 L 438 410 L 381 450 L 321 476 L 246 482 L 176 454 L 129 397 L 97.6 328 L 85 271 L 88.2 214 L 94.5 154 L 120 94.5 L 161 53.6 L 205 28.4 L 265 15.8 L 331 34.6 L 391 72.4 L 435 110 M 125.48973 239.77375 M 125.48973 239.77375L 425 18.9 L 425 139 L 391 97.6 L 350 56.7 L 293 25.2 L 239 15.8 L 183 31.5 L 145 63 L 123 104 L 120 183 L 120 476 M 133.24572999999998 239.77375 M 133.24572999999998 239.77375L 126 479 M 133.24572999999998 239.77375L 97.6 621 L 148 621 L 148 671 L 97.6 671 M 136.77372999999997 239.77375 M 136.77372999999997 239.77375L 362 34.6 L 287 18.9 L 217 28.4 L 145 75.6 L 104 142 L 88.2 220 L 88.2 302 L 113 378 L 164 438 L 224 472 L 290 482 L 346 472 L 384 454 L 400 435 M 143.38172999999998 239.77375 M 143.38172999999998 239.77375L 123 718 M 143.38172999999998 239.77375L 126 148 M 143.38172999999998 239.77375L 435 15.8 M 170.17172999999997 239.77375 M 170.17172999999997 239.77375L 123 15.8 L 123 101 L 158 72.4 L 211 37.8 L 268 22.1 L 324 18.9 L 391 56.7 L 432 101 L 463 164 L 476 243 L 472 321 L 457 394 L 410 454 L 369 476 L 312 488 L 252 476 L 192 444 L 129 394 M 178.06772999999995 239.77375 M 178.06772999999995 239.77375L 129 482 L 129 340 L 158 397 L 202 454 L 249 476 L 293 482 L 321 479 M 182.82772999999995 239.77375 M 182.82772999999995 239.77375L 290 18.9 L 353 34.6 L 413 75.6 L 450 139 L 466 208 L 469 274 L 460 334 L 438 387 L 406 428 L 362 466 L 315 482 L 271 485 L 220 476 L 173 447 L 132 400 L 110 356 L 91.4 290 L 91.4 239 L 97.6 180 L 113 126 L 151 75.6 L 195 40.9 L 243 22.1 L 287 18.9 M 190.68172999999996 239.77375 M 190.68172999999996 239.77375L 198 9.45 L 211 9.45 L 343 482 L 362 482 L 495 9.45 L 507 9.45 L 643 482 M 200.50972999999996 239.77375 M 200.50972999999996 239.77375L 126 482 L 126 369 L 170 413 L 211 450 L 243 469 L 290 482 L 321 485 L 369 472 L 397 454 L 419 422 L 438 378 L 438 15.8 M 228.32172999999997 239.77375 M 228.32172999999997 239.77375L 135 472 L 59.9 472 L 255 472 L 132 472 L 132 611 L 142 658 L 173 706 L 220 724 L 261 718 L 290 706 M 232.38172999999998 239.77375 M 232.38172999999998 239.77375L 290 18.9 L 353 34.6 L 413 75.6 L 450 139 L 466 208 L 469 274 L 460 334 L 438 387 L 406 428 L 362 466 L 315 482 L 271 485 L 220 476 L 173 447 L 132 400 L 110 356 L 91.4 290 L 91.4 239 L 97.6 180 L 113 126 L 151 75.6 L 195 40.9 L 243 22.1 L 287 18.9 M 240.23573 239.77375 M 240.23573 239.77375L 365 485 M 240.23573 239.77375L 387 9.45 M 266.32573 239.77375 M 266.32573 239.77375L -3.15 -186 L 31.5 -195 L 78.8 -192 L 120 -164 L 132 -113 L 132 482 M 266.32573 239.77375L 104 621 L 154 621 L 154 668 L 104 668 M 269.97973 239.77375 M 269.97973 239.77375L 425 18.9 L 425 139 L 391 97.6 L 350 56.7 L 293 25.2 L 239 15.8 L 183 31.5 L 145 63 L 123 104 L 120 183 L 120 476 M 277.73573 239.77375 M 277.73573 239.77375L 123 479 L 123 375 L 167 413 L 208 447 L 246 472 L 293 485 L 334 479 L 362 466 L 394 435 L 416 381 L 422 315 L 422 15.8 L 422 365 L 435 391 L 501 450 L 551 476 L 592 488 L 636 476 L 665 460 L 699 419 L 715 337 L 715 18.9 M 289.42573 239.77375 M 289.42573 239.77375L 123 482 L 123 381 L 176 435 L 239 469 L 293 479 L 359 479 L 410 450 L 454 387 L 476 315 L 476 233 L 466 164 L 432 91.4 L 381 44.1 L 343 25.2 L 284 22.1 L 236 31.5 L 183 59.9 L 132 94.5 M 297.36373 239.77375 M 297.36373 239.77375L 435 265 L 435 321 L 419 394 L 372 450 L 324 482 L 258 485 L 192 466 L 135 419 L 113 372 L 88.2 312 L 81.9 249 L 97.6 173 L 126 104 L 183 47.2 L 236 22.1 L 302 15.8 L 359 31.5 L 413 59.9 M 304.41972999999996 239.77375 M 304.41972999999996 239.77375L 438 22.1 L 438 117 L 394 72.4 L 334 31.5 L 274 15.8 L 224 25.2 L 173 47.2 L 123 101 L 91.4 173 L 85 261 L 107 365 L 161 444 L 236 482 L 296 488 L 359 466 L 400 441 L 441 403" class="converted-text-1" data-original-text="quick brown fox jumped"/><path d="M 158.59961 272.81368 M 158.59961 272.81368L 290 18.9 L 353 34.6 L 413 75.6 L 450 139 L 466 208 L 469 274 L 460 334 L 438 387 L 406 428 L 362 466 L 315 482 L 271 485 L 220 476 L 173 447 L 132 400 L 110 356 L 91.4 290 L 91.4 239 L 97.6 180 L 113 126 L 151 75.6 L 195 40.9 L 243 22.1 L 287 18.9 M 166.45361000000003 272.81368 M 166.45361000000003 272.81368L 227 15.8 L 239 15.8 L 413 485 M 172.89361000000002 272.81368 M 172.89361000000002 272.81368L 435 265 L 435 321 L 419 394 L 372 450 L 324 482 L 258 485 L 192 466 L 135 419 L 113 372 L 88.2 312 L 81.9 249 L 97.6 173 L 126 104 L 183 47.2 L 236 22.1 L 302 15.8 L 359 31.5 L 413 59.9 M 179.94961000000004 272.81368 M 179.94961000000004 272.81368L 129 482 L 129 340 L 158 397 L 202 454 L 249 476 L 293 482 L 321 479 M 204.70961000000003 272.81368 M 204.70961000000003 272.81368L 265 22.1 L 220 22.1 L 180 34.6 L 145 75.6 L 139 145 L 139 469 L 47.2 469 L 290 469 L 139 469 L 139 611 M 209.38561 272.81368 M 209.38561 272.81368L 126 715 L 126 365 L 173 416 L 214 454 L 274 479 L 334 485 L 403 447 L 428 403 L 441 331 L 441 18.9 M 217.14161000000001 272.81368 M 217.14161000000001 272.81368L 435 265 L 435 321 L 419 394 L 372 450 L 324 482 L 258 485 L 192 466 L 135 419 L 113 372 L 88.2 312 L 81.9 249 L 97.6 173 L 126 104 L 183 47.2 L 236 22.1 L 302 15.8 L 359 31.5 L 413 59.9 M 244.19761000000003 272.81368 M 244.19761000000003 272.81368L 129 63 L 135 40.9 L 145 28.4 L 161 18.9 L 183 18.9 M 247.90761000000003 272.81368 M 247.90761000000003 272.81368L 183 466 L 239 482 L 296 488 L 340 472 L 378 438 L 403 387 L 406 318 L 406 107 L 406 22.1 L 403 107 L 362 78.8 L 318 47.2 L 268 25.2 L 211 15.8 L 164 31.5 L 126 56.7 L 97.6 97.6 L 97.6 158 L 120 205 L 170 246 L 220 265 L 280 284 L 337 293 L 372 296 L 400 296 M 255.18761000000003 272.81368 M 255.18761000000003 272.81368L 359 466 L 63 31.5 L 381 31.5 M 261.13761000000005 272.81368 M 261.13761000000005 272.81368L 243 3.15 M 261.13761000000005 272.81368L 211 -78.8 L 189 -126 L 158 -161 L 120 -183 L 53.5 -183 M 287.57761000000005 272.81368 M 287.57761000000005 272.81368L 438 22.1 L 438 117 L 394 72.4 L 334 31.5 L 274 15.8 L 224 25.2 L 173 47.2 L 123 101 L 91.4 173 L 85 261 L 107 365 L 161 444 L 236 482 L 296 488 L 359 466 L 400 441 L 441 403 M 295.51561000000004 272.81368 M 295.51561000000004 272.81368L 290 18.9 L 353 34.6 L 413 75.6 L 450 139 L 466 208 L 469 274 L 460 334 L 438 387 L 406 428 L 362 466 L 315 482 L 271 485 L 220 476 L 173 447 L 132 400 L 110 356 L 91.4 290 L 91.4 239 L 97.6 180 L 113 126 L 151 75.6 L 195 40.9 L 243 22.1 L 287 18.9 M 303.36961 272.81368 M 303.36961 272.81368L 123 -3.15 L 91.4 -56.7 L 85 -113 L 129 -161 L 202 -192 L 287 -202 L 362 -183 L 438 -132 L 466 -85 L 463 -31.5 L 435 18.9 L 365 37.8 L 173 37.8 L 132 66.1 L 113 110 L 123 151 L 176 211 L 211 189 L 265 180 L 331 202 L 378 246 L 400 299 L 400 362 L 375 419 L 356 444 L 312 472 L 463 472 L 312 472 L 265 482 L 192 476 L 142 435 L 113 378 L 110 315 L 123 265 L 148 233 L 176 208" class="converted-text-2" data-original-text="over the lazy dog"/><path d="M 176.84103 305.8536 M 176.84103 305.8536L 161 595 L 268 636 L 268 31.5 L 110 31.5 L 422 31.5 M 183.89703 305.8536 M 183.89703 305.8536L 117 598 L 167 630 L 230 646 L 284 636 L 340 608 L 375 561 L 391 491 L 387 432 L 356 359 L 299 277 L 230 192 L 167 126 L 110 63 L 81.9 31.5 L 438 31.5 M 190.95303 305.8536 M 190.95303 305.8536L 139 614 L 205 643 L 258 643 L 315 627 L 362 589 L 384 539 L 394 479 L 378 425 L 324 384 L 265 353 L 214 343 L 176 343 L 224 343 L 274 337 L 324 318 L 378 277 L 403 239 L 413 195 L 410 148 L 400 110 L 369 66.1 L 324 37.8 L 268 22.1 L 208 22.1 L 151 37.8 L 94.5 69.3 L 59.9 101 M 197.92503000000002 305.8536 M 197.92503000000002 305.8536L 340 630 L 47.2 220 L 444 220 M 204.98103000000003 305.8536 M 204.98103000000003 305.8536L 101 63 L 145 37.8 L 195 18.9 L 243 15.8 L 315 34.6 L 365 75.6 L 406 135 L 422 205 L 413 287 L 378 350 L 306 391 L 233 397 L 180 384 L 126 356 L 120 365 L 139 630 L 397 630 M 211.99503000000004 305.8536 M 211.99503000000004 305.8536L 132 315 L 189 359 L 246 378 L 309 378 L 356 356 L 391 324 L 416 265 L 425 195 L 410 123 L 375 63 L 321 25.2 L 258 15.8 L 202 34.6 L 151 72.4 L 110 135 L 91.4 224 L 85 318 L 97.6 438 L 120 510 L 148 567 L 195 614 L 255 639 L 315 643 L 372 624 L 413 589 M 218.96703000000005 305.8536 M 218.96703000000005 305.8536L 236 186 L 261 306 L 296 410 L 340 491 L 387 567 L 435 633 L 72.5 633 M 226.02303000000006 305.8536 M 226.02303000000006 305.8536L 359 372 L 397 428 L 406 482 L 403 539 L 362 605 L 299 639 L 249 643 L 173 621 L 123 570 L 110 513 L 126 435 L 176 387 L 265 340 L 346 296 L 400 255 L 425 198 L 419 129 L 400 78.8 L 340 31.5 L 265 15.8 L 205 25.2 L 142 53.6 L 94.5 104 L 78.8 158 L 85 236 L 135 306 L 176 334 L 230 359 M 233.03703000000007 305.8536 M 233.03703000000007 305.8536L 123 40.9 L 180 22.1 L 239 15.8 L 302 47.2 L 362 107 L 397 198 L 413 309 L 413 413 L 391 510 L 353 586 L 293 630 L 224 643 L 151 617 L 107 573 L 81.9 517 L 75.6 460 L 78.8 397 L 113 331 L 176 290 L 252 280 L 334 315 L 384 362 L 416 403 M 240.05103000000008 305.8536 M 240.05103000000008 305.8536L 306 31.5 L 369 94.5 L 397 161 L 410 236 L 416 340 L 410 438 L 387 532 L 356 592 L 306 630 L 261 646 L 224 643 L 164 608 L 123 551 L 94.5 460 L 85 365 L 81.9 271 L 94.5 183 L 126 94.5 L 164 53.6 L 202 22.1 L 246 18.9 M 247.0650300000001 305.8536 M 247.0650300000001 305.8536L 97.6 406 L 145 406 L 145 454 L 97.6 454 M 247.0650300000001 305.8536L 97.6 25.2 L 145 25.2 L 145 72.4 L 97.6 72.4 M 250.55103000000008 305.8536 M 250.55103000000008 305.8536L 343 709" class="converted-text-3" data-original-text="1234567890:/"/></g></svg>